# xmcd CD database file generated by Grip 3.2.0
# 
# Track frame offsets:
#       150
#       11650
#       19315
#       33407
#       41195
#       51157
#       61942
#       75965
#       90297
#       101742
#       109080
#       124862
#       138317
#       150237
#       161095
#       167907
#       176390
#       186252
#       195300
#       204242
# 
# Disc length: 2896 seconds
# 
# Revision: 2
# Processed by: cddbd v1.5.2PL0 Copyright (c) Steve Scherf et al.
# Submitted via: Grip 3.2.0
# 
DISCID=fa0b4e14
DTITLE=Frank Sinatra - Night and Day
DYEAR=1900
DGENRE=Blues
TTITLE0=Blue Skies
TTITLE1=S'Wonderful
TTITLE2=Begin the Beguine
TTITLE3=I'll String Along
TTITLE4=Devil and The Deep Blue Sea
TTITLE5=At the Last Love
TTITLE6=A Lover Is Blue
TTITLE7=Day By Day
TTITLE8=Five Minutes More
TTITLE9=What Can I Say
TTITLE10=Ol' Man River
TTITLE11=I Fall in Love Every Day
TTITLE12=You Do Something to Me
TTITLE13=Night and Day
TTITLE14=Somebody Loves Me
TTITLE15=On The Sunny Side of the Street
TTITLE16=Love Me or Leave Me
TTITLE17=They Didn't Believe Me
TTITLE18=I've Got My Love to Keep Me Warm
TTITLE19=You Make Me Feel So Young
EXTD=
EXTT0=
EXTT1=
EXTT2=
EXTT3=
EXTT4=
EXTT5=
EXTT6=
EXTT7=
EXTT8=
EXTT9=
EXTT10=
EXTT11=
EXTT12=
EXTT13=
EXTT14=
EXTT15=
EXTT16=
EXTT17=
EXTT18=
EXTT19=
PLAYORDER=
